<mxfile host="app.diagrams.net" modified="2020-12-03T13:34:00.392Z" agent="5.0 (Windows NT 10.0; Win64; x64) AppleWebKit/537.36 (KHTML, like Gecko) Chrome/86.0.4240.75 Safari/537.36" etag="a5h80LuOiSYdTOipGrIk" version="13.10.6" type="github">
  <diagram id="vkdGNRCkzlDfsGuA4iYe" name="第 1 页">
    <mxGraphModel dx="1303" dy="728" grid="1" gridSize="10" guides="1" tooltips="1" connect="1" arrows="1" fold="1" page="1" pageScale="1" pageWidth="1600" pageHeight="900" math="0" shadow="0">
      <root>
        <mxCell id="0" />
        <mxCell id="1" parent="0" />
        <mxCell id="vKGEzfJKwZOgUFduur7M-14" value="" style="rounded=0;whiteSpace=wrap;html=1;fillColor=none;" vertex="1" parent="1">
          <mxGeometry x="340" y="135" width="1050" height="540" as="geometry" />
        </mxCell>
        <mxCell id="vKGEzfJKwZOgUFduur7M-3" style="edgeStyle=orthogonalEdgeStyle;rounded=0;orthogonalLoop=1;jettySize=auto;html=1;entryX=0;entryY=0.5;entryDx=0;entryDy=0;" edge="1" parent="1" source="UXZxyVc_RQPHm8C6PB5C-3" target="vKGEzfJKwZOgUFduur7M-2">
          <mxGeometry relative="1" as="geometry" />
        </mxCell>
        <mxCell id="UXZxyVc_RQPHm8C6PB5C-3" value="Server&lt;br&gt;Socket" style="ellipse;whiteSpace=wrap;html=1;aspect=fixed;" parent="1" vertex="1">
          <mxGeometry x="360" y="230" width="80" height="80" as="geometry" />
        </mxCell>
        <mxCell id="UXZxyVc_RQPHm8C6PB5C-8" style="edgeStyle=orthogonalEdgeStyle;rounded=0;orthogonalLoop=1;jettySize=auto;html=1;entryX=0;entryY=0.5;entryDx=0;entryDy=0;" parent="1" source="UXZxyVc_RQPHm8C6PB5C-5" target="UXZxyVc_RQPHm8C6PB5C-6" edge="1">
          <mxGeometry relative="1" as="geometry" />
        </mxCell>
        <mxCell id="UXZxyVc_RQPHm8C6PB5C-5" value="io多路复用处理器" style="whiteSpace=wrap;html=1;aspect=fixed;" parent="1" vertex="1">
          <mxGeometry x="560" y="370" width="80" height="80" as="geometry" />
        </mxCell>
        <mxCell id="UXZxyVc_RQPHm8C6PB5C-10" style="edgeStyle=orthogonalEdgeStyle;rounded=0;orthogonalLoop=1;jettySize=auto;html=1;entryX=0;entryY=0.5;entryDx=0;entryDy=0;" parent="1" source="UXZxyVc_RQPHm8C6PB5C-6" target="UXZxyVc_RQPHm8C6PB5C-9" edge="1">
          <mxGeometry relative="1" as="geometry" />
        </mxCell>
        <mxCell id="UXZxyVc_RQPHm8C6PB5C-6" value="" style="rounded=0;whiteSpace=wrap;html=1;" parent="1" vertex="1">
          <mxGeometry x="690" y="380" width="290" height="60" as="geometry" />
        </mxCell>
        <mxCell id="UXZxyVc_RQPHm8C6PB5C-14" style="edgeStyle=orthogonalEdgeStyle;rounded=0;orthogonalLoop=1;jettySize=auto;html=1;entryX=0;entryY=0.5;entryDx=0;entryDy=0;" parent="1" source="UXZxyVc_RQPHm8C6PB5C-9" target="UXZxyVc_RQPHm8C6PB5C-11" edge="1">
          <mxGeometry relative="1" as="geometry" />
        </mxCell>
        <mxCell id="UXZxyVc_RQPHm8C6PB5C-15" style="edgeStyle=orthogonalEdgeStyle;rounded=0;orthogonalLoop=1;jettySize=auto;html=1;entryX=0;entryY=0.5;entryDx=0;entryDy=0;" parent="1" source="UXZxyVc_RQPHm8C6PB5C-9" target="UXZxyVc_RQPHm8C6PB5C-12" edge="1">
          <mxGeometry relative="1" as="geometry" />
        </mxCell>
        <mxCell id="UXZxyVc_RQPHm8C6PB5C-16" style="edgeStyle=orthogonalEdgeStyle;rounded=0;orthogonalLoop=1;jettySize=auto;html=1;entryX=0;entryY=0.5;entryDx=0;entryDy=0;" parent="1" source="UXZxyVc_RQPHm8C6PB5C-9" target="UXZxyVc_RQPHm8C6PB5C-13" edge="1">
          <mxGeometry relative="1" as="geometry" />
        </mxCell>
        <mxCell id="UXZxyVc_RQPHm8C6PB5C-9" value="文件事件分派器" style="whiteSpace=wrap;html=1;aspect=fixed;" parent="1" vertex="1">
          <mxGeometry x="1020" y="370" width="80" height="80" as="geometry" />
        </mxCell>
        <mxCell id="vKGEzfJKwZOgUFduur7M-21" style="edgeStyle=orthogonalEdgeStyle;rounded=0;orthogonalLoop=1;jettySize=auto;html=1;" edge="1" parent="1" source="UXZxyVc_RQPHm8C6PB5C-11" target="vKGEzfJKwZOgUFduur7M-20">
          <mxGeometry relative="1" as="geometry" />
        </mxCell>
        <mxCell id="UXZxyVc_RQPHm8C6PB5C-11" value="连接应答处理器" style="rounded=0;whiteSpace=wrap;html=1;" parent="1" vertex="1">
          <mxGeometry x="1150" y="210" width="140" height="60" as="geometry" />
        </mxCell>
        <mxCell id="vKGEzfJKwZOgUFduur7M-23" style="edgeStyle=orthogonalEdgeStyle;rounded=0;orthogonalLoop=1;jettySize=auto;html=1;entryX=0.001;entryY=0.619;entryDx=0;entryDy=0;entryPerimeter=0;" edge="1" parent="1" source="UXZxyVc_RQPHm8C6PB5C-12" target="vKGEzfJKwZOgUFduur7M-22">
          <mxGeometry relative="1" as="geometry" />
        </mxCell>
        <mxCell id="UXZxyVc_RQPHm8C6PB5C-12" value="命令请求处理器" style="rounded=0;whiteSpace=wrap;html=1;" parent="1" vertex="1">
          <mxGeometry x="1150" y="380" width="140" height="60" as="geometry" />
        </mxCell>
        <mxCell id="vKGEzfJKwZOgUFduur7M-25" style="edgeStyle=orthogonalEdgeStyle;rounded=0;orthogonalLoop=1;jettySize=auto;html=1;" edge="1" parent="1" source="UXZxyVc_RQPHm8C6PB5C-13" target="vKGEzfJKwZOgUFduur7M-24">
          <mxGeometry relative="1" as="geometry" />
        </mxCell>
        <mxCell id="UXZxyVc_RQPHm8C6PB5C-13" value="命令回复处理器" style="rounded=0;whiteSpace=wrap;html=1;" parent="1" vertex="1">
          <mxGeometry x="1150" y="550" width="140" height="60" as="geometry" />
        </mxCell>
        <mxCell id="UXZxyVc_RQPHm8C6PB5C-17" value="&lt;font style=&quot;font-size: 20px&quot;&gt;队列&lt;/font&gt;" style="text;html=1;align=center;verticalAlign=middle;resizable=0;points=[];autosize=1;" parent="1" vertex="1">
          <mxGeometry x="850" y="350" width="60" height="20" as="geometry" />
        </mxCell>
        <mxCell id="UXZxyVc_RQPHm8C6PB5C-18" value="s01" style="ellipse;whiteSpace=wrap;html=1;" parent="1" vertex="1">
          <mxGeometry x="900" y="385" width="70" height="50" as="geometry" />
        </mxCell>
        <mxCell id="UXZxyVc_RQPHm8C6PB5C-19" value="s02" style="ellipse;whiteSpace=wrap;html=1;" parent="1" vertex="1">
          <mxGeometry x="820" y="385" width="70" height="50" as="geometry" />
        </mxCell>
        <mxCell id="vKGEzfJKwZOgUFduur7M-1" value="" style="group" vertex="1" connectable="0" parent="1">
          <mxGeometry x="80" y="350" width="120" height="90" as="geometry" />
        </mxCell>
        <mxCell id="UXZxyVc_RQPHm8C6PB5C-1" value="socket01" style="rounded=0;whiteSpace=wrap;html=1;" parent="vKGEzfJKwZOgUFduur7M-1" vertex="1">
          <mxGeometry x="1" y="30" width="120" height="60" as="geometry" />
        </mxCell>
        <mxCell id="UXZxyVc_RQPHm8C6PB5C-2" value="客户端" style="text;html=1;align=center;verticalAlign=middle;resizable=0;points=[];autosize=1;" parent="vKGEzfJKwZOgUFduur7M-1" vertex="1">
          <mxGeometry x="30" width="50" height="20" as="geometry" />
        </mxCell>
        <mxCell id="vKGEzfJKwZOgUFduur7M-4" style="edgeStyle=orthogonalEdgeStyle;rounded=0;orthogonalLoop=1;jettySize=auto;html=1;entryX=0.5;entryY=0;entryDx=0;entryDy=0;" edge="1" parent="1" source="vKGEzfJKwZOgUFduur7M-2" target="UXZxyVc_RQPHm8C6PB5C-5">
          <mxGeometry relative="1" as="geometry" />
        </mxCell>
        <mxCell id="vKGEzfJKwZOgUFduur7M-2" value="AE_READABLE" style="ellipse;whiteSpace=wrap;html=1;" vertex="1" parent="1">
          <mxGeometry x="560" y="220" width="110" height="50" as="geometry" />
        </mxCell>
        <mxCell id="vKGEzfJKwZOgUFduur7M-8" style="edgeStyle=orthogonalEdgeStyle;rounded=0;orthogonalLoop=1;jettySize=auto;html=1;entryX=0;entryY=0.5;entryDx=0;entryDy=0;" edge="1" parent="1" source="vKGEzfJKwZOgUFduur7M-5" target="vKGEzfJKwZOgUFduur7M-6">
          <mxGeometry relative="1" as="geometry" />
        </mxCell>
        <mxCell id="vKGEzfJKwZOgUFduur7M-11" style="edgeStyle=orthogonalEdgeStyle;rounded=0;orthogonalLoop=1;jettySize=auto;html=1;entryX=0;entryY=0.5;entryDx=0;entryDy=0;" edge="1" parent="1" source="vKGEzfJKwZOgUFduur7M-5" target="vKGEzfJKwZOgUFduur7M-10">
          <mxGeometry relative="1" as="geometry" />
        </mxCell>
        <mxCell id="vKGEzfJKwZOgUFduur7M-18" value="返回结果 ok" style="edgeStyle=orthogonalEdgeStyle;rounded=0;orthogonalLoop=1;jettySize=auto;html=1;" edge="1" parent="1" source="vKGEzfJKwZOgUFduur7M-5">
          <mxGeometry relative="1" as="geometry">
            <mxPoint x="200" y="430" as="targetPoint" />
            <Array as="points">
              <mxPoint x="280" y="440" />
              <mxPoint x="280" y="430" />
            </Array>
          </mxGeometry>
        </mxCell>
        <mxCell id="vKGEzfJKwZOgUFduur7M-5" value="socket&lt;br&gt;01" style="ellipse;whiteSpace=wrap;html=1;aspect=fixed;" vertex="1" parent="1">
          <mxGeometry x="360" y="370" width="80" height="80" as="geometry" />
        </mxCell>
        <mxCell id="vKGEzfJKwZOgUFduur7M-9" style="edgeStyle=orthogonalEdgeStyle;rounded=0;orthogonalLoop=1;jettySize=auto;html=1;entryX=0.25;entryY=1;entryDx=0;entryDy=0;" edge="1" parent="1" source="vKGEzfJKwZOgUFduur7M-6" target="UXZxyVc_RQPHm8C6PB5C-5">
          <mxGeometry relative="1" as="geometry" />
        </mxCell>
        <mxCell id="vKGEzfJKwZOgUFduur7M-6" value="AE_READABLE" style="ellipse;whiteSpace=wrap;html=1;" vertex="1" parent="1">
          <mxGeometry x="430" y="490" width="110" height="50" as="geometry" />
        </mxCell>
        <mxCell id="vKGEzfJKwZOgUFduur7M-12" style="edgeStyle=orthogonalEdgeStyle;rounded=0;orthogonalLoop=1;jettySize=auto;html=1;entryX=0.5;entryY=1;entryDx=0;entryDy=0;" edge="1" parent="1" source="vKGEzfJKwZOgUFduur7M-10" target="UXZxyVc_RQPHm8C6PB5C-5">
          <mxGeometry relative="1" as="geometry" />
        </mxCell>
        <mxCell id="vKGEzfJKwZOgUFduur7M-10" value="AE_WRITABLE" style="ellipse;whiteSpace=wrap;html=1;" vertex="1" parent="1">
          <mxGeometry x="430" y="555" width="110" height="50" as="geometry" />
        </mxCell>
        <mxCell id="vKGEzfJKwZOgUFduur7M-15" value="&lt;font style=&quot;font-size: 22px&quot;&gt;redis进程&lt;/font&gt;" style="text;html=1;align=center;verticalAlign=middle;resizable=0;points=[];autosize=1;" vertex="1" parent="1">
          <mxGeometry x="770" y="180" width="110" height="20" as="geometry" />
        </mxCell>
        <mxCell id="vKGEzfJKwZOgUFduur7M-16" value="客户端发送&lt;br&gt;set key value 请求" style="edgeStyle=orthogonalEdgeStyle;rounded=0;orthogonalLoop=1;jettySize=auto;html=1;entryX=0;entryY=0;entryDx=0;entryDy=0;" edge="1" parent="1" source="UXZxyVc_RQPHm8C6PB5C-1" target="vKGEzfJKwZOgUFduur7M-5">
          <mxGeometry relative="1" as="geometry" />
        </mxCell>
        <mxCell id="vKGEzfJKwZOgUFduur7M-19" value="客户端连接到&lt;br&gt;redis 的 server socket&lt;br&gt;请求建立连接" style="edgeStyle=orthogonalEdgeStyle;rounded=0;orthogonalLoop=1;jettySize=auto;html=1;entryX=0;entryY=0.5;entryDx=0;entryDy=0;" edge="1" parent="1" source="UXZxyVc_RQPHm8C6PB5C-1" target="UXZxyVc_RQPHm8C6PB5C-3">
          <mxGeometry relative="1" as="geometry">
            <Array as="points">
              <mxPoint x="141" y="270" />
            </Array>
          </mxGeometry>
        </mxCell>
        <mxCell id="vKGEzfJKwZOgUFduur7M-20" value="&lt;font style=&quot;font-size: 18px ; background-color: rgb(255 , 255 , 255)&quot;&gt;将 socket01 的&lt;br&gt;AE_READABLE事件&lt;br&gt;跟命令请求处理器建立关联&lt;/font&gt;" style="text;html=1;align=center;verticalAlign=middle;resizable=0;points=[];autosize=1;" vertex="1" parent="1">
          <mxGeometry x="1350" y="160" width="230" height="50" as="geometry" />
        </mxCell>
        <mxCell id="vKGEzfJKwZOgUFduur7M-22" value="&lt;font style=&quot;font-size: 18px ; background-color: rgb(255 , 255 , 255)&quot;&gt;从 socket01中读出key和value&lt;br&gt;在自己内存中进行操作&lt;br&gt;&lt;br&gt;将socket 01的AE_WRITABLE&lt;br&gt;事件跟命令回复处理器关联&lt;br&gt;&lt;/font&gt;" style="text;html=1;align=center;verticalAlign=middle;resizable=0;points=[];autosize=1;" vertex="1" parent="1">
          <mxGeometry x="1340" y="360" width="250" height="90" as="geometry" />
        </mxCell>
        <mxCell id="vKGEzfJKwZOgUFduur7M-24" value="&lt;font style=&quot;font-size: 18px&quot;&gt;对socket01结果输出ok&lt;br&gt;将socket01的AE_WRITABLE&lt;br&gt;事件跟命令回复处理器解除关联&lt;br&gt;&lt;/font&gt;" style="text;html=1;align=center;verticalAlign=middle;resizable=0;points=[];autosize=1;" vertex="1" parent="1">
          <mxGeometry x="1320" y="555" width="270" height="50" as="geometry" />
        </mxCell>
      </root>
    </mxGraphModel>
  </diagram>
</mxfile>
